<?xml version="1.0" standalone="no"?>
<!DOCTYPE svg PUBLIC "-//W3C//DTD SVG 20010904//EN"
 "http://www.w3.org/TR/2001/REC-SVG-20010904/DTD/svg10.dtd">
<svg version="1.0" xmlns="http://www.w3.org/2000/svg"
 width="700.000000pt" height="700.000000pt" viewBox="0 0 700.000000 700.000000"
 preserveAspectRatio="xMidYMid meet">
<metadata>
Created by potrace 1.14, written by Peter Selinger 2001-2017
</metadata>
<g transform="translate(0.000000,700.000000) scale(0.100000,-0.100000)"
fill="#000000" stroke="none">
<path d="M172 6983 c-60 -21 -135 -97 -155 -157 -16 -46 -17 -289 -17 -3326 0
-3698 -9 -3334 81 -3421 90 -87 -266 -79 3419 -79 3698 0 3334 -9 3421 81 87
90 79 -266 79 3419 0 3692 8 3333 -80 3420 -87 88 273 80 -3424 79 -2903 0
-3286 -2 -3324 -16z m5558 -1398 l0 -525 -760 0 -760 0 0 -717 0 -718 -713
713 -712 712 -758 0 -757 0 0 530 0 530 2230 0 2230 0 0 -525z m-2114 -2366
l1104 -1104 0 1108 0 1107 505 0 505 0 0 -1725 0 -1725 -607 0 -608 0 -1112
1112 -1113 1113 0 -640 0 -640 465 -465 c256 -256 465 -468 465 -473 0 -4
-438 -6 -972 -5 l-973 3 -3 1724 -2 1724 621 -5 621 -5 1104 -1104z"/>
</g>
</svg>
